<?xml version="1.0" encoding="UTF-8" standalone="no"?>
<svg
   xmlns:dc="http://purl.org/dc/elements/1.1/"
   xmlns:cc="http://creativecommons.org/ns#"
   xmlns:rdf="http://www.w3.org/1999/02/22-rdf-syntax-ns#"
   xmlns:svg="http://www.w3.org/2000/svg"
   xmlns="http://www.w3.org/2000/svg"
   xmlns:sodipodi="http://sodipodi.sourceforge.net/DTD/sodipodi-0.dtd"
   xmlns:inkscape="http://www.inkscape.org/namespaces/inkscape"
   width="32"
   height="32"
   viewBox="0 0 24 24"
   id="svg2"
   version="1.1"
   inkscape:version="1.0.2 (e86c870879, 2021-01-15)"
   sodipodi:docname="cancer-ribbon.svg">
  <defs
     id="defs4">
    <clipPath
       id="clipEmfPath1"
       clipPathUnits="userSpaceOnUse">
      <path
         inkscape:connector-curvature="0"
         id="path3341"
         d="m 5.00114,-1.25029 511.36686,0 0,867.69829 -511.36686,0 z" />
    </clipPath>
    <pattern
       y="0"
       x="0"
       height="6"
       width="6"
       patternUnits="userSpaceOnUse"
       id="EMFhbasepattern" />
    <clipPath
       id="clipEmfPath1-9"
       clipPathUnits="userSpaceOnUse">
      <path
         inkscape:connector-curvature="0"
         id="path3734"
         d="m 5.00114,-1.25029 497.61386,0 0,175.04029 -497.61386,0 z" />
    </clipPath>
    <pattern
       y="0"
       x="0"
       height="6"
       width="6"
       patternUnits="userSpaceOnUse"
       id="EMFhbasepattern-1" />
    <clipPath
       id="clipEmfPath1-97"
       clipPathUnits="userSpaceOnUse">
      <path
         inkscape:connector-curvature="0"
         id="path3839"
         d="m 5.00114,-1.25029 497.61386,0 0,175.04029 -497.61386,0 z" />
    </clipPath>
    <pattern
       y="0"
       x="0"
       height="6"
       width="6"
       patternUnits="userSpaceOnUse"
       id="EMFhbasepattern-12" />
    <clipPath
       id="clipEmfPath1-97-3"
       clipPathUnits="userSpaceOnUse">
      <path
         inkscape:connector-curvature="0"
         id="path3839-7"
         d="m 5.00114,-1.25029 497.61386,0 0,175.04029 -497.61386,0 z" />
    </clipPath>
    <clipPath
       id="clipPath3949"
       clipPathUnits="userSpaceOnUse">
      <path
         inkscape:connector-curvature="0"
         id="path3951"
         d="m 5.00114,-1.25029 497.61386,0 0,175.04029 -497.61386,0 z" />
    </clipPath>
    <clipPath
       id="clipPath3953"
       clipPathUnits="userSpaceOnUse">
      <path
         inkscape:connector-curvature="0"
         id="path3955"
         d="m 5.00114,-1.25029 497.61386,0 0,175.04029 -497.61386,0 z" />
    </clipPath>
    <clipPath
       id="clipPath3957"
       clipPathUnits="userSpaceOnUse">
      <path
         inkscape:connector-curvature="0"
         id="path3959"
         d="m 5.00114,-1.25029 497.61386,0 0,175.04029 -497.61386,0 z" />
    </clipPath>
    <clipPath
       id="clipPath3961"
       clipPathUnits="userSpaceOnUse">
      <path
         inkscape:connector-curvature="0"
         id="path3963"
         d="m 5.00114,-1.25029 497.61386,0 0,175.04029 -497.61386,0 z" />
    </clipPath>
    <clipPath
       id="clipPath3965"
       clipPathUnits="userSpaceOnUse">
      <path
         inkscape:connector-curvature="0"
         id="path3967"
         d="m 5.00114,-1.25029 497.61386,0 0,175.04029 -497.61386,0 z" />
    </clipPath>
    <clipPath
       id="clipPath3969"
       clipPathUnits="userSpaceOnUse">
      <path
         inkscape:connector-curvature="0"
         id="path3971"
         d="m 5.00114,-1.25029 497.61386,0 0,175.04029 -497.61386,0 z" />
    </clipPath>
    <clipPath
       id="clipEmfPath1-97-3-6"
       clipPathUnits="userSpaceOnUse">
      <path
         inkscape:connector-curvature="0"
         id="path3839-7-5"
         d="m 5.00114,-1.25029 497.61386,0 0,175.04029 -497.61386,0 z" />
    </clipPath>
    <clipPath
       id="clipPath4087"
       clipPathUnits="userSpaceOnUse">
      <path
         inkscape:connector-curvature="0"
         id="path4089"
         d="m 5.00114,-1.25029 497.61386,0 0,175.04029 -497.61386,0 z" />
    </clipPath>
    <clipPath
       id="clipPath4091"
       clipPathUnits="userSpaceOnUse">
      <path
         inkscape:connector-curvature="0"
         id="path4093"
         d="m 5.00114,-1.25029 497.61386,0 0,175.04029 -497.61386,0 z" />
    </clipPath>
    <clipPath
       id="clipPath4095"
       clipPathUnits="userSpaceOnUse">
      <path
         inkscape:connector-curvature="0"
         id="path4097"
         d="m 5.00114,-1.25029 497.61386,0 0,175.04029 -497.61386,0 z" />
    </clipPath>
    <clipPath
       id="clipPath4099"
       clipPathUnits="userSpaceOnUse">
      <path
         inkscape:connector-curvature="0"
         id="path4101"
         d="m 5.00114,-1.25029 497.61386,0 0,175.04029 -497.61386,0 z" />
    </clipPath>
    <clipPath
       id="clipEmfPath1-97-3-6-9"
       clipPathUnits="userSpaceOnUse">
      <path
         inkscape:connector-curvature="0"
         id="path3839-7-5-8"
         d="m 5.00114,-1.25029 497.61386,0 0,175.04029 -497.61386,0 z" />
    </clipPath>
    <clipPath
       id="clipPath4191"
       clipPathUnits="userSpaceOnUse">
      <path
         inkscape:connector-curvature="0"
         id="path4193"
         d="m 5.00114,-1.25029 497.61386,0 0,175.04029 -497.61386,0 z" />
    </clipPath>
    <clipPath
       id="clipPath4195"
       clipPathUnits="userSpaceOnUse">
      <path
         inkscape:connector-curvature="0"
         id="path4197"
         d="m 5.00114,-1.25029 497.61386,0 0,175.04029 -497.61386,0 z" />
    </clipPath>
    <clipPath
       id="clipEmfPath1-5"
       clipPathUnits="userSpaceOnUse">
      <path
         inkscape:connector-curvature="0"
         id="path4256"
         d="m 5.00114,0 497.61386,0 0,175.04 -497.61386,0 z" />
    </clipPath>
    <pattern
       y="0"
       x="0"
       height="6"
       width="6"
       patternUnits="userSpaceOnUse"
       id="EMFhbasepattern-2" />
    <clipPath
       id="clipEmfPath1-1"
       clipPathUnits="userSpaceOnUse">
      <path
         inkscape:connector-curvature="0"
         id="path4361"
         d="m 5.00114,0 497.61386,0 0,175.04 -497.61386,0 z" />
    </clipPath>
    <pattern
       y="0"
       x="0"
       height="6"
       width="6"
       patternUnits="userSpaceOnUse"
       id="EMFhbasepattern-9" />
    <clipPath
       id="clipEmfPath1-1-0"
       clipPathUnits="userSpaceOnUse">
      <path
         inkscape:connector-curvature="0"
         id="path4361-5"
         d="m 5.00114,0 497.61386,0 0,175.04 -497.61386,0 z" />
    </clipPath>
    <clipPath
       id="clipPath4507"
       clipPathUnits="userSpaceOnUse">
      <path
         inkscape:connector-curvature="0"
         id="path4509"
         d="m 5.00114,0 497.61386,0 0,175.04 -497.61386,0 z" />
    </clipPath>
    <clipPath
       id="clipPath4511"
       clipPathUnits="userSpaceOnUse">
      <path
         inkscape:connector-curvature="0"
         id="path4513"
         d="m 5.00114,0 497.61386,0 0,175.04 -497.61386,0 z" />
    </clipPath>
    <clipPath
       id="clipEmfPath1-1-4"
       clipPathUnits="userSpaceOnUse">
      <path
         inkscape:connector-curvature="0"
         id="path4361-7"
         d="m 5.00114,0 497.61386,0 0,175.04 -497.61386,0 z" />
    </clipPath>
    <clipPath
       id="clipPath4507-2"
       clipPathUnits="userSpaceOnUse">
      <path
         inkscape:connector-curvature="0"
         id="path4509-7"
         d="m 5.00114,0 497.61386,0 0,175.04 -497.61386,0 z" />
    </clipPath>
    <clipPath
       id="clipPath4511-0"
       clipPathUnits="userSpaceOnUse">
      <path
         inkscape:connector-curvature="0"
         id="path4513-3"
         d="m 5.00114,0 497.61386,0 0,175.04 -497.61386,0 z" />
    </clipPath>
    <clipPath
       id="clipEmfPath1-1-4-0"
       clipPathUnits="userSpaceOnUse">
      <path
         inkscape:connector-curvature="0"
         id="path4361-7-2"
         d="m 5.00114,0 497.61386,0 0,175.04 -497.61386,0 z" />
    </clipPath>
    <clipPath
       id="clipPath4647"
       clipPathUnits="userSpaceOnUse">
      <path
         inkscape:connector-curvature="0"
         id="path4649"
         d="m 5.00114,0 497.61386,0 0,175.04 -497.61386,0 z" />
    </clipPath>
    <clipPath
       id="clipPath4651"
       clipPathUnits="userSpaceOnUse">
      <path
         inkscape:connector-curvature="0"
         id="path4653"
         d="m 5.00114,0 497.61386,0 0,175.04 -497.61386,0 z" />
    </clipPath>
    <clipPath
       id="clipEmfPath1-3"
       clipPathUnits="userSpaceOnUse">
      <path
         inkscape:connector-curvature="0"
         id="path4708"
         d="m 5.00114,0 385.08786,0 0,175.04 -385.08786,0 z" />
    </clipPath>
    <pattern
       y="0"
       x="0"
       height="6"
       width="6"
       patternUnits="userSpaceOnUse"
       id="EMFhbasepattern-8" />
    <clipPath
       id="clipEmfPath1-3-6"
       clipPathUnits="userSpaceOnUse">
      <path
         inkscape:connector-curvature="0"
         id="path4708-4"
         d="m 5.00114,0 385.08786,0 0,175.04 -385.08786,0 z" />
    </clipPath>
    <clipPath
       id="clipPath4800"
       clipPathUnits="userSpaceOnUse">
      <path
         inkscape:connector-curvature="0"
         id="path4802"
         d="m 5.00114,0 385.08786,0 0,175.04 -385.08786,0 z" />
    </clipPath>
    <clipPath
       id="clipPath4804"
       clipPathUnits="userSpaceOnUse">
      <path
         inkscape:connector-curvature="0"
         id="path4806"
         d="m 5.00114,0 385.08786,0 0,175.04 -385.08786,0 z" />
    </clipPath>
    <clipPath
       id="clipEmfPath1-3-6-7"
       clipPathUnits="userSpaceOnUse">
      <path
         inkscape:connector-curvature="0"
         id="path4708-4-9"
         d="m 5.00114,0 385.08786,0 0,175.04 -385.08786,0 z" />
    </clipPath>
    <clipPath
       id="clipPath4888"
       clipPathUnits="userSpaceOnUse">
      <path
         inkscape:connector-curvature="0"
         id="path4890"
         d="m 5.00114,0 385.08786,0 0,175.04 -385.08786,0 z" />
    </clipPath>
    <clipPath
       id="clipPath4892"
       clipPathUnits="userSpaceOnUse">
      <path
         inkscape:connector-curvature="0"
         id="path4894"
         d="m 5.00114,0 385.08786,0 0,175.04 -385.08786,0 z" />
    </clipPath>
  </defs>
  <sodipodi:namedview
     id="base"
     pagecolor="#ffffff"
     bordercolor="#666666"
     borderopacity="1.0"
     inkscape:pageopacity="0.0"
     inkscape:pageshadow="2"
     inkscape:zoom="5.4046512"
     inkscape:cx="17.079578"
     inkscape:cy="17.287682"
     inkscape:document-units="px"
     inkscape:current-layer="layer1"
     showgrid="false"
     fit-margin-top="0"
     fit-margin-left="0"
     fit-margin-right="0"
     fit-margin-bottom="0"
     inkscape:window-width="1658"
     inkscape:window-height="835"
     inkscape:window-x="0"
     inkscape:window-y="27"
     inkscape:window-maximized="1"
     inkscape:document-rotation="0" />
  <metadata
     id="metadata7">
    <rdf:RDF>
      <cc:Work
         rdf:about="">
        <dc:format>image/svg+xml</dc:format>
        <dc:type
           rdf:resource="http://purl.org/dc/dcmitype/StillImage" />
        <dc:title></dc:title>
      </cc:Work>
    </rdf:RDF>
  </metadata>
  <g
     inkscape:label="Layer 1"
     inkscape:groupmode="layer"
     id="layer1"
     transform="translate(-156.4072,-382.51542)">
    <path
       inkscape:connector-curvature="0"
       id="path4735"
       d="m 157.05774,394.51011 c 0,-1.30115 2.6464,-11.86486 11.95296,-11.512 9.28454,0.3308 11.51212,10.32111 11.51212,11.62227 -0.022,1.30118 -7.71877,-3.79324 -11.62247,-3.79324 -3.92543,-0.022 -11.86462,4.98413 -11.84261,3.68297 z"
       style="fill:#003399;fill-opacity:1;fill-rule:evenodd;stroke:none" />
    <path
       inkscape:connector-curvature="0"
       id="path4737"
       d="m 157.05774,394.51011 c 0,-1.30115 2.6464,-11.86486 11.95296,-11.512 9.28454,0.3308 11.51212,10.32111 11.51212,11.62227 -0.022,1.30118 -7.71877,-3.79324 -11.62247,-3.79324 -3.92543,-0.022 -11.86462,4.98413 -11.84261,3.68297"
       style="fill:none;stroke:#000000;stroke-width:0.94830716px;stroke-linecap:butt;stroke-linejoin:round;stroke-miterlimit:4;stroke-dasharray:none;stroke-opacity:1" />
    <path
       inkscape:connector-curvature="0"
       id="path4739"
       d="m 175.67086,385.44607 c 0.88223,0.97036 7.03524,6.26324 4.25648,12.74702 -2.80078,6.50581 -14.99645,25.05289 -18.23833,30.43402 -1.45571,-2.91112 -1.89682,-3.13154 -4.80766,-8.04954 3.24189,-5.60155 14.66568,-22.40655 17.7752,-28.1846 3.10953,-5.80012 -0.022,-7.45414 1.01431,-6.9469 z"
       style="fill:#003399;fill-opacity:1;fill-rule:evenodd;stroke:none" />
    <path
       inkscape:connector-curvature="0"
       id="path4741"
       d="m 175.67086,385.44607 c 0.88223,0.97036 7.03524,6.26324 4.25648,12.74702 -2.80078,6.50581 -14.99645,25.05289 -18.23833,30.43402 -1.45571,-2.91112 -1.89682,-3.13154 -4.80766,-8.04954 3.24189,-5.60155 14.66568,-22.40655 17.7752,-28.1846 3.10953,-5.80012 -0.022,-7.45414 1.01431,-6.9469"
       style="fill:none;stroke:#000000;stroke-width:0.94830716px;stroke-linecap:butt;stroke-linejoin:round;stroke-miterlimit:4;stroke-dasharray:none;stroke-opacity:1" />
    <path
       inkscape:connector-curvature="0"
       id="path4743"
       d="m 161.93144,385.37991 c -0.88195,0.97034 -7.07927,6.26322 -4.27821,12.74699 2.82279,6.48378 15.01845,25.05304 18.28235,30.43417 1.45542,-2.91112 1.89654,-3.13182 4.80766,-8.04982 -3.24189,-5.60155 -14.68769,-22.40639 -17.81923,-28.20651 -3.10952,-5.77804 0.022,-7.43206 -0.99257,-6.92483 z"
       style="fill:#003399;fill-opacity:1;fill-rule:evenodd;stroke:none" />
    <path
       inkscape:connector-curvature="0"
       id="path4745"
       d="m 161.93144,385.37991 c -0.88195,0.97034 -7.07927,6.26322 -4.27821,12.74699 2.82279,6.48378 15.01845,25.05304 18.28235,30.43417 1.45542,-2.91112 1.89654,-3.13182 4.80766,-8.04982 -3.24189,-5.60155 -14.68769,-22.40639 -17.81923,-28.20651 -3.10952,-5.77804 0.022,-7.43206 -0.99257,-6.92483"
       style="fill:none;stroke:#000000;stroke-width:0.94830716px;stroke-linecap:butt;stroke-linejoin:round;stroke-miterlimit:4;stroke-dasharray:none;stroke-opacity:1" />
  </g>
</svg>
